<svg width="25" height="16" viewBox="0 0 25 16" fill="none" xmlns="http://www.w3.org/2000/svg">
<path d="M12.6254 0.294923C9.95538 0.294923 7.28738 1.07892 4.98038 2.64792H0.619385L2.58238 4.78292C1.68799 5.5978 1.061 6.66416 0.783785 7.84192C0.506568 9.01968 0.59209 10.2537 1.02912 11.382C1.46614 12.5103 2.23423 13.4799 3.23248 14.1637C4.23072 14.8474 5.41244 15.2131 6.62238 15.2129C8.1342 15.2142 9.59034 14.6425 10.6974 13.6129L12.6194 15.7049L14.5414 13.6149C15.6478 14.6434 17.1028 15.2144 18.6134 15.2129C20.2043 15.2129 21.7302 14.5811 22.8553 13.4563C23.9805 12.3315 24.6129 10.8059 24.6134 9.21492C24.6143 8.38055 24.4407 7.55521 24.1036 6.79193C23.7666 6.02866 23.2736 5.34433 22.6564 4.78292L24.6194 2.64792H20.2694C18.0155 1.11364 15.3519 0.293704 12.6254 0.294923ZM12.6194 2.25492C14.1504 2.25492 15.6824 2.55792 17.1234 3.15792C14.5624 4.13792 12.6194 6.42992 12.6194 9.09992C12.6194 6.42892 10.6774 4.13792 8.11538 3.15792C9.54252 2.56311 11.0733 2.25556 12.6194 2.25492ZM6.62138 5.15692C7.15442 5.15692 7.68224 5.26191 8.1747 5.4659C8.66716 5.66988 9.11462 5.96886 9.49153 6.34578C9.86844 6.72269 10.1674 7.17015 10.3714 7.66261C10.5754 8.15507 10.6804 8.68289 10.6804 9.21592C10.6804 9.74896 10.5754 10.2768 10.3714 10.7692C10.1674 11.2617 9.86844 11.7092 9.49153 12.0861C9.11462 12.463 8.66716 12.762 8.1747 12.9659C7.68224 13.1699 7.15442 13.2749 6.62138 13.2749C5.54487 13.2749 4.51245 12.8473 3.75124 12.0861C2.99003 11.3249 2.56238 10.2924 2.56238 9.21592C2.56238 8.13941 2.99003 7.10699 3.75124 6.34578C4.51245 5.58457 5.54487 5.15692 6.62138 5.15692ZM18.6134 5.15892C19.1462 5.15873 19.6739 5.26348 20.1662 5.46721C20.6586 5.67093 21.106 5.96964 21.4829 6.34628C21.8598 6.72291 22.1589 7.1701 22.363 7.6623C22.567 8.1545 22.6722 8.68208 22.6724 9.21492C22.6726 9.74776 22.5678 10.2754 22.3641 10.7678C22.1604 11.2601 21.8617 11.7075 21.485 12.0844C21.1084 12.4614 20.6612 12.7604 20.169 12.9645C19.6768 13.1686 19.1492 13.2737 18.6164 13.2739C17.5403 13.2743 16.5081 12.8472 15.7469 12.0866C14.9856 11.3259 14.5578 10.294 14.5574 9.21792C14.557 8.14181 14.9841 7.10961 15.7447 6.3484C16.5054 5.58719 17.5373 5.15932 18.6134 5.15892ZM6.62138 7.08892C6.057 7.08892 5.51574 7.31312 5.11666 7.7122C4.71758 8.11128 4.49338 8.65254 4.49338 9.21692C4.49338 9.7813 4.71758 10.3226 5.11666 10.7216C5.51574 11.1207 6.057 11.3449 6.62138 11.3449C7.18577 11.3449 7.72703 11.1207 8.12611 10.7216C8.52519 10.3226 8.74938 9.7813 8.74938 9.21692C8.74938 8.65254 8.52519 8.11128 8.12611 7.7122C7.72703 7.31312 7.18577 7.08892 6.62138 7.08892ZM18.6134 7.08892C18.049 7.08892 17.5077 7.31312 17.1087 7.7122C16.7096 8.11128 16.4854 8.65254 16.4854 9.21692C16.4854 9.7813 16.7096 10.3226 17.1087 10.7216C17.5077 11.1207 18.049 11.3449 18.6134 11.3449C19.1778 11.3449 19.719 11.1207 20.1181 10.7216C20.5172 10.3226 20.7414 9.7813 20.7414 9.21692C20.7414 8.65254 20.5172 8.11128 20.1181 7.7122C19.719 7.31312 19.1778 7.08892 18.6134 7.08892Z" fill="black"/>
</svg>
