<svg width="10" height="12" viewBox="0 0 10 12" fill="none" xmlns="http://www.w3.org/2000/svg">
<path d="M8.75 6.75012H6.5V5.58695C6.51034 5.07457 6.66059 4.57476 6.93451 4.14162C7.21014 3.67877 7.30978 3.1321 7.21519 2.60176C7.1206 2.07143 6.8381 1.59292 6.41945 1.2539C6.11725 1.00752 5.75619 0.843952 5.3717 0.779238C4.9872 0.714524 4.59249 0.750891 4.22629 0.88477C3.8601 1.01865 3.535 1.24544 3.28291 1.54288C3.03082 1.84033 2.86039 2.19821 2.78836 2.5814C2.6849 3.11999 2.78481 3.67782 3.06879 4.14702C3.33794 4.56577 3.48709 5.05032 3.5 5.54795V6.75012H1.25C1.05115 6.75032 0.860499 6.8294 0.719889 6.97001C0.57928 7.11062 0.500199 7.30127 0.5 7.50012V9.00012C0.500248 9.19896 0.579345 9.38958 0.719944 9.53018C0.860543 9.67078 1.05116 9.74988 1.25 9.75012V10.5001C1.25025 10.699 1.32935 10.8896 1.46994 11.0302C1.61054 11.1708 1.80116 11.2499 2 11.2501H8C8.19884 11.2499 8.38946 11.1708 8.53006 11.0302C8.67065 10.8896 8.74975 10.699 8.75 10.5001V9.75012C8.94884 9.74988 9.13946 9.67078 9.28006 9.53018C9.42065 9.38958 9.49975 9.19896 9.5 9.00012V7.50012C9.4998 7.30127 9.42072 7.11062 9.28011 6.97001C9.1395 6.8294 8.94885 6.75032 8.75 6.75012ZM3.52625 2.71662C3.56655 2.50134 3.65352 2.2975 3.78104 2.11943C3.90855 1.94135 4.07353 1.79337 4.26436 1.68588C4.45519 1.57839 4.66724 1.514 4.88562 1.49724C5.104 1.48047 5.3234 1.51174 5.5284 1.58885C5.7334 1.66595 5.91903 1.78703 6.07223 1.94355C6.22543 2.10007 6.34249 2.28825 6.41518 2.49486C6.48787 2.70147 6.51443 2.92149 6.49298 3.13946C6.47154 3.35743 6.40261 3.56806 6.29105 3.75654C6.01229 4.21087 5.83614 4.72062 5.7749 5.25012H4.2275C4.16843 4.72124 3.99215 4.21218 3.7115 3.76002C3.52274 3.44714 3.45673 3.07536 3.52625 2.71662ZM5.75 6.00012V6.75012H4.25V6.00012H5.75ZM8 10.5001H2V9.75012H8V10.5001ZM1.25 9.00012V7.50012H8.75V9.00012H1.25Z" fill="#FD226E"/>
</svg>
