<svg width="16" height="16" viewBox="0 0 16 16" fill="none" xmlns="http://www.w3.org/2000/svg">
<rect y="2.6665" width="16" height="10.6667" rx="1" fill="#D8D8D8"/>
<mask id="mask0_2302_8203" style="mask-type:luminance" maskUnits="userSpaceOnUse" x="0" y="2" width="16" height="12">
<rect y="2.6665" width="16" height="10.6667" rx="1" fill="white"/>
</mask>
<g mask="url(#mask0_2302_8203)">
<rect y="2.67676" width="16" height="10.6668" fill="#F0F0F0"/>
<path d="M9 2.67676H7V7.01007H0V9.01007H7V13.3434H9V9.01007H16V7.01007H9V2.67676Z" fill="#D80027"/>
<path d="M12.3058 9.86523L16 11.9176V9.86523H12.3058Z" fill="#0052B4"/>
<path d="M9.73914 9.86523L16 13.3435V12.3599L11.5096 9.86523H9.73914Z" fill="#0052B4"/>
<path d="M14.3323 13.3435L9.73914 10.7915V13.3435H14.3323Z" fill="#0052B4"/>
<path d="M9.73914 9.86523L16 13.3435V12.3599L11.5096 9.86523H9.73914Z" fill="#F0F0F0"/>
<path d="M9.73914 9.86523L16 13.3435V12.3599L11.5096 9.86523H9.73914Z" fill="#D80027"/>
<path d="M2.82316 9.86523L0 11.4337V9.86523H2.82316Z" fill="#0052B4"/>
<path d="M6.26091 10.3076V13.3436H0.796631L6.26091 10.3076Z" fill="#0052B4"/>
<path d="M4.49041 9.86523L0 12.3599V13.3435L6.26088 9.86523H4.49041Z" fill="#D80027"/>
<path d="M3.69422 6.15491L0 4.10254V6.15491H3.69422Z" fill="#0052B4"/>
<path d="M6.26088 6.15501L0 2.67676V3.66032L4.49041 6.15501H6.26088Z" fill="#0052B4"/>
<path d="M1.66772 2.67676L6.26091 5.22876V2.67676H1.66772Z" fill="#0052B4"/>
<path d="M6.26088 6.15501L0 2.67676V3.66032L4.49041 6.15501H6.26088Z" fill="#F0F0F0"/>
<path d="M6.26088 6.15501L0 2.67676V3.66032L4.49041 6.15501H6.26088Z" fill="#D80027"/>
<path d="M13.1769 6.15486L16 4.58643V6.15486H13.1769Z" fill="#0052B4"/>
<path d="M9.73914 5.71273V2.67676H15.2034L9.73914 5.71273Z" fill="#0052B4"/>
<path d="M11.5096 6.15501L16 3.66032V2.67676L9.73914 6.15501H11.5096Z" fill="#D80027"/>
</g>
</svg>
