<svg width="48" height="48" viewBox="0 0 48 48" fill="none" xmlns="http://www.w3.org/2000/svg">
<path fill-rule="evenodd" clip-rule="evenodd" d="M19.9995 19.5H16.7499L15.5002 16.5H7.5L6.2496 19.5H3L9.8748 3H13.125L19.9995 19.5ZM11.4998 6.9L8.74965 13.5H14.25L11.4998 6.9ZM27 16.5H45V19.5H27V16.5ZM45 22.5H27V25.5H45V22.5ZM36 28.5H27V31.5H36V28.5ZM21 31.5V28.5H13.5V25.5H10.5V28.5H3V31.5H15.3222C14.7709 33.7513 13.6226 35.8122 11.9984 37.4657C11.147 36.5774 10.4172 35.5802 9.82815 34.5H6.5001C7.26261 36.3305 8.35305 38.0063 9.71775 39.4449C8.10965 40.5902 6.35463 41.5137 4.5 42.1905L5.55315 45C7.86124 44.1594 10.0306 42.9782 11.9892 41.4957C13.9553 42.9788 16.1318 44.1599 18.4468 45L19.5 42.1905C17.6464 41.515 15.892 40.5933 14.2842 39.45C16.4014 37.2607 17.8253 34.4951 18.3774 31.5H21Z" fill="#1D0387"/>
</svg>
