<svg width="16" height="16" viewBox="0 0 16 16" fill="none" xmlns="http://www.w3.org/2000/svg">
<rect y="2.6665" width="16" height="10.6667" rx="1" fill="#D8D8D8"/>
<mask id="mask0_2302_8315" style="mask-type:luminance" maskUnits="userSpaceOnUse" x="0" y="2" width="16" height="12">
<rect y="2.6665" width="16" height="10.6667" rx="1" fill="white"/>
</mask>
<g mask="url(#mask0_2302_8315)">
<path d="M0 2.67687L16 2.6665L16.0836 13.3332H0V2.67687Z" fill="#D80027"/>
<path d="M6.05049 2.67676V8.09916L6.0504 13.3331H0V2.67676H6.05049Z" fill="#6DA544"/>
<ellipse cx="6.05053" cy="7.92822" rx="1.96923" ry="1.96923" fill="#FFDA44"/>
<path d="M4.94275 6.94336V8.17416C4.94275 8.78591 5.43869 9.28185 6.05044 9.28185C6.6622 9.28185 7.15813 8.78591 7.15813 8.17416V6.94336H4.94275Z" fill="#D80027"/>
<path d="M6.05038 8.54367C5.84678 8.54367 5.68115 8.37804 5.68115 8.17444V7.68213H6.41964V8.17444C6.41961 8.37801 6.25395 8.54367 6.05038 8.54367Z" fill="#F0F0F0"/>
</g>
</svg>
